<svg width="12" height="6" viewBox="0 0 12 6" fill="none" xmlns="http://www.w3.org/2000/svg">
<path d="M10.1678 0.0784063C10.2173 0.0282258 10.2847 1.0746e-08 10.355 9.90319e-09C10.4254 9.06038e-09 10.4927 0.0282258 10.5423 0.0784063L11.1012 0.640348C11.1522 0.688449 11.1812 0.755607 11.1812 0.825895C11.1812 0.896183 11.1522 0.963341 11.1012 1.01144L6.25489 5.88337C6.18079 5.95796 6.08026 5.99991 5.9754 6L5.83829 6C5.73343 5.99991 5.63289 5.95796 5.55879 5.88337L0.712436 1.01144C0.661453 0.963341 0.632533 0.896183 0.632533 0.825895C0.632533 0.755607 0.661453 0.688449 0.712436 0.640348L1.27143 0.0784065C1.32094 0.0282259 1.38833 1.17394e-07 1.45864 1.16552e-07C1.52894 1.15709e-07 1.59634 0.0282259 1.64585 0.0784064L5.90684 4.36189L10.1678 0.0784063Z" fill="#777777"/>
</svg>
