<svg width="17" height="16" viewBox="0 0 17 16" fill="none" xmlns="http://www.w3.org/2000/svg">
<path fill-rule="evenodd" clip-rule="evenodd" d="M12.4133 11.0715L15.9495 14.6313C16.1074 14.8079 16.0996 15.0783 15.9318 15.2454L15.313 15.8684C15.23 15.9526 15.117 16 14.9991 16C14.8813 16 14.7683 15.9526 14.6853 15.8684L11.1491 12.3085C11.0512 12.21 10.9625 12.1028 10.8838 11.9881L10.2208 11.0982C9.12373 11.9801 7.76139 12.4602 6.35747 12.4598C3.46449 12.4699 0.950599 10.461 0.304094 7.62231C-0.342411 4.78365 1.05101 1.87288 3.65942 0.613257C6.26782 -0.646363 9.39506 0.0813446 11.1897 2.36555C12.9844 4.64977 12.9675 7.88086 11.1491 10.1459L12.0331 10.76C12.1712 10.849 12.2987 10.9535 12.4133 11.0715ZM1.93772 6.23008C1.93772 8.68763 3.91675 10.6799 6.358 10.6799C7.53033 10.6799 8.65465 10.2111 9.48361 9.37656C10.3126 8.54206 10.7783 7.41024 10.7783 6.23008C10.7783 3.77252 8.79926 1.78027 6.358 1.78027C3.91675 1.78027 1.93772 3.77252 1.93772 6.23008Z" fill="black"/>
</svg>
